<?xml version="1.0" encoding="utf-8"?>
<!-- Generator: Adobe Illustrator 22.0.1, SVG Export Plug-In . SVG Version: 6.00 Build 0)  -->
<svg version="1.1" id="Laag_1" xmlns="http://www.w3.org/2000/svg" xmlns:xlink="http://www.w3.org/1999/xlink" x="0px" y="0px"
	 width="109px" height="109px" viewBox="0 0 109 109" style="enable-background:new 0 0 109 109;" xml:space="preserve">
<style type="text/css">
	.st0{fill:#FFFFFF;}
	.st1{fill:#E17000;}
</style>
<g>
	<title>DigiD inloggen flow v4</title>
	<g id="content_1_">
		<path d="M15.8,0.6h77.5c8.4,0,15.2,6.8,15.2,15.2v77.5c0,8.4-6.8,15.2-15.2,15.2H15.8c-8.4,0-15.2-6.8-15.2-15.2V15.8
			C0.6,7.4,7.4,0.6,15.8,0.6z"/>
		<path class="st0" d="M12.6,83.1V57.6h7.3c8.6,0,13.4,4.3,13.4,12c0,9.3-5.2,13.5-13.6,13.5H12.6z M17.2,79.2h2.7
			c5.1,0,8.5-2.8,8.5-9.4c0-5.5-3.3-8.4-8.8-8.4h-2.3L17.2,79.2z"/>
		<path class="st0" d="M39.6,55.8c1.3-0.1,2.5,0.8,2.6,2.2c0,0.1,0,0.3,0,0.4c0,1.3-1,2.5-2.3,2.5c-0.1,0-0.2,0-0.3,0
			c-1.3,0.1-2.4-0.8-2.6-2c0-0.2,0-0.3,0-0.5c-0.1-1.3,1-2.5,2.3-2.5C39.4,55.8,39.5,55.8,39.6,55.8z M41.8,83.1h-4.4V63.9l4.4-0.2
			V83.1z"/>
		<path class="st0" d="M52.5,79.4h4.6c4.1,0,5.9,1.6,5.9,4.7c0,3.7-3,6.6-10,6.6c-5.5,0-8-1.9-8-4.9c0-1.9,1.1-3.5,2.9-4.2v-0.1
			c-1-0.5-1.5-1.5-1.5-2.6c0-1.3,0.9-2.5,2.1-2.9v-0.1c-1.8-1-2.8-2.6-2.8-5.1c0-4.7,3.1-7.2,8-7.2c1,0,2,0.1,3,0.4h6.2v2.9h-2.9
			v0.1c1,0.9,1.6,2.2,1.5,3.6c0,4.2-2.9,6.5-8.2,6.5c-0.8,0-1.6-0.1-2.4-0.3c-0.5,0.2-0.8,0.7-0.8,1.2C50,78.9,50.7,79.4,52.5,79.4z
			 M53.3,87.4c4.2,0,5.7-1,5.7-2.6c0-1.1-0.7-1.8-2.6-1.8L50,82.9c-0.7,0.4-1.1,1.2-1.1,2C49,86.4,50.3,87.4,53.3,87.4z M57.4,70.3
			c0-2.3-1.3-3.6-3.7-3.6c-2.2,0-3.7,1.3-3.7,3.9s1.4,3.5,3.7,3.5C56,74.1,57.4,73,57.4,70.3z"/>
		<path class="st1" d="M68.1,55.8c1.3-0.1,2.5,0.8,2.6,2.2c0,0.1,0,0.2,0,0.4c0,1.3-1,2.5-2.3,2.5c-0.1,0-0.2,0-0.3,0
			c-1.3,0.1-2.4-0.8-2.6-2c0-0.1,0-0.3,0-0.4c-0.1-1.3,1-2.5,2.3-2.5C67.9,55.8,68,55.8,68.1,55.8z M70.3,83.1h-4.4V63.9l4.4-0.2
			V83.1z"/>
		<path class="st1" d="M75.8,83.1V57.6h7.3c8.6,0,13.4,4.3,13.4,12c0,9.3-5.2,13.5-13.6,13.5H75.8z M80.5,79.2h2.7
			c5.1,0,8.5-2.8,8.5-9.4c0-5.5-3.3-8.4-8.8-8.4h-2.3L80.5,79.2z"/>
	</g>
</g>
<title>DigiD</title>
<desc>Created with Sketch.</desc>
</svg>
