<?xml version="1.0" encoding="utf-8"?>
<!-- Generator: Adobe Illustrator 24.0.1, SVG Export Plug-In . SVG Version: 6.00 Build 0)  -->
<svg version="1.1" id="Flag" xmlns="http://www.w3.org/2000/svg" xmlns:xlink="http://www.w3.org/1999/xlink" x="0px" y="0px"
	 viewBox="0 0 109 109" style="enable-background:new 0 0 109 109;" xml:space="preserve">
<style type="text/css">
	.st0{fill:#314199;}
	.st1{fill:#F8EC26;}
</style>
<g>
	<rect class="st0" width="109" height="109"/>
	<g>
		<polygon class="st1" points="54.5,85.5 55.9,89.8 60.3,89.7 57.2,92.1 58,96.7 54.5,94.1 50.9,96.6 51.8,92.1 48.7,89.7 
			53.1,89.7 		"/>
		<polygon class="st1" points="54.5,11.8 55.9,16 60.3,16 57.2,18.4 58,22.9 54.5,20.3 50.9,22.9 51.8,18.4 48.7,16 53.1,16 		"/>
		<polygon class="st1" points="72.2,16.5 73.7,20.8 78,20.8 74.9,23.1 75.8,27.7 72.2,25.1 68.7,27.6 69.5,23.1 66.4,20.8 
			70.8,20.8 		"/>
		<polygon class="st1" points="35.8,16.5 37.3,20.8 41.6,20.8 38.5,23.1 39.4,27.7 35.8,25.1 32.3,27.6 33.1,23.1 30.1,20.8 
			34.4,20.8 		"/>
		<polygon class="st1" points="72.2,80.5 73.7,84.8 78,84.8 74.9,87.1 75.8,91.7 72.2,89.1 68.7,91.6 69.5,87.1 66.4,84.8 
			70.8,84.8 		"/>
		<polygon class="st1" points="35.8,80.5 37.3,84.8 41.6,84.8 38.5,87.1 39.4,91.7 35.8,89.1 32.3,91.6 33.1,87.1 30.1,84.8 
			34.4,84.8 		"/>
		<polygon class="st1" points="22.2,30.4 23.7,34.7 28,34.7 24.9,37 25.8,41.6 22.2,39 18.7,41.5 19.5,37 16.5,34.7 20.8,34.7 		"/>
		<polygon class="st1" points="86.3,30.4 87.7,34.7 92.1,34.7 89,37 89.8,41.6 86.3,39 82.7,41.5 83.6,37 80.5,34.7 84.9,34.7 		"/>
		<polygon class="st1" points="22.2,67.2 23.7,71.5 28,71.5 24.9,73.8 25.8,78.4 22.2,75.8 18.7,78.3 19.5,73.8 16.5,71.5 
			20.8,71.5 		"/>
		<polygon class="st1" points="86.3,67.2 87.7,71.5 92.1,71.5 89,73.8 89.8,78.4 86.3,75.8 82.7,78.3 83.6,73.8 80.5,71.5 
			84.9,71.5 		"/>
		<polygon class="st1" points="18,48.7 19.5,52.9 23.8,52.9 20.7,55.3 21.6,59.8 18,57.3 14.5,59.8 15.3,55.3 12.3,52.9 16.6,52.9 
					"/>
		<polygon class="st1" points="90.9,48.7 92.4,52.9 96.7,52.9 93.6,55.3 94.5,59.8 90.9,57.3 87.4,59.8 88.2,55.3 85.2,52.9 
			89.5,52.9 		"/>
	</g>
</g>
</svg>
