<?xml version="1.0" encoding="UTF-8"?>
<!-- Generator: Adobe Illustrator 22.0.1, SVG Export Plug-In . SVG Version: 6.00 Build 0)  -->
<svg version="1.1" id="DH-NL-RGB-Comp" xmlns="http://www.w3.org/2000/svg" xmlns:xlink="http://www.w3.org/1999/xlink" x="0px" y="0px" viewBox="0 0 703 459.6" style="enable-background:new 0 0 703 459.6;" xml:space="preserve">
<style type="text/css">
	.st0{fill:none;}
	.st1{fill:#155429;}
	.st2{fill:#1D6B34;}
	.st3{fill:#FFFFFF;}
	.st4{fill:#E3C029;}
	.st5{fill:#D2AD15;}
	.st6{fill:url(#SVGID_1_);}
	.st7{fill:#EFD544;}
	.st8{fill:#B98F16;}
	.st9{fill:#F6E477;}
	.st10{fill:url(#SVGID_2_);}
	.st11{fill:#4B4B4B;}
	.st12{fill:#636363;}
</style>
<g>
	<rect y="-115.3" class="st0" width="703" height="674.6"/>
	<g>
		<path class="st1" d="M161.5,365.7c-8.3,0-16.6,0.4-22,0.4h-8.4v7.8c2.6,0.6,5.7,1.1,8.7,1.3v49.3c-3,0.2-6.1,0.7-8.7,1.3v7.8h8.7    c3.3,0,11.7,0.4,18.7,0.4c22,0,37.2-12.1,37.2-35.3C195.7,375.1,182.4,365.7,161.5,365.7z M159.7,423.2c-2.5,0-5.3-0.1-7.2-0.4    v-46.1c2.1-0.2,5.1-0.3,8.1-0.3c15.6,0,21.5,8.7,21.5,23.4C182.1,416,172.8,423.2,159.7,423.2z M226.4,382.9    c-14.7,0-23.4,11.4-23.4,26.3c0,17.5,8.7,25.4,24.5,25.4c5.9,0,12.2-1.1,17.8-3l-1.3-9.3c-5.1,1.7-10.1,2.6-15,2.6    c-9.3,0-13.3-4.7-13.4-13.6h31c0,0,0.4-3.6,0.4-7.3C247,392.2,240.9,382.9,226.4,382.9z M215.7,403c0.7-6.8,4.7-10.8,10.1-10.8    c5.5,0,9,3.7,8.8,10.8H215.7z M288.8,382.9c-8.2,0-14,4.1-17,10.1l-0.1-0.1c0.5-2.7,0.7-6.7,0.7-9.1c-6.6-0.2-14.2,0.1-20.5,0.9    v7.7c2.9,0.2,6.3,0.6,8.7,1v40.3h12.5v-24c0-8.9,5.1-16.3,11.7-16.3c4.9,0,6.4,3.2,6.4,8.5v31.8h12.4v-35    C303.6,390,300,382.9,288.8,382.9z M509.3,400.4c0-11-4.8-17.5-20.1-17.5c-6.1,0-13,1.5-18.5,3.5l1.9,9.4    c4.8-1.9,10.6-3.3,15.1-3.3c6.7,0,9,2.8,9,8.7v2.1c-17.4,0-28.8,5.6-28.8,17.3c0,8.1,5.3,14.1,14.2,14.1c7.5,0,13.6-4,16-9.6    l0.1,0.1c-0.4,2.6-0.5,5.6-0.5,8.6c6.4,0.2,14-0.1,20.3-0.9v-7.7c-2.9-0.2-6.3-0.6-8.7-1V400.4z M496.7,413    c0,5.9-4.2,12.1-10.6,12.1c-3.8,0-6.1-2.6-6.1-6c0-4.3,3.6-7.6,16.7-7.6V413z M549.9,383c-17.5,0-27.1,11.5-27.1,28.3    c0,15.2,6.6,23.3,18.5,23.3c6.6,0,12.2-3.6,14.8-9.4l0.2,0.1c-0.5,2.6-0.6,4.8-0.6,7.3v3.1c0,8.5-4.5,12.3-14,12.3    c-4.9,0-10.3-0.9-14.7-2.5l-1.2,11.3c4.2,1,9.6,1.7,15.2,1.7c18.9,0,27-8.9,27-24v-50C562.6,383.6,556.8,383,549.9,383z     M555.6,407.7c0,8.7-4.1,16.6-11,16.6c-5.9,0-8.7-4.8-8.7-14.1c0-12.5,5.3-17.2,12.8-17.2c2.5,0,4.7,0.3,6.9,0.8V407.7z     M378.7,374.1c2.3,0.5,5,0.9,7.4,1.1v18H357v-18c2.4-0.2,5.1-0.6,7.4-1.1v-8h-27.8v7.8c2.6,0.6,5.7,1.1,8.7,1.3v49.3    c-3,0.2-6.1,0.7-8.7,1.3v7.8h27.8v-8c-2.3-0.5-5-0.9-7.4-1.1v-20.3h29.1v20.3c-2.4,0.2-5.1,0.6-7.4,1.1v8h27.8v-7.8    c-2.6-0.6-5.7-1.1-8.7-1.3v-49.3c3-0.2,6.1-0.7,8.7-1.3v-7.8h-27.8V374.1z M454.2,400.4c0-11-4.8-17.5-20.1-17.5    c-6.1,0-13,1.5-18.5,3.5l1.9,9.4c4.8-1.9,10.6-3.3,15.1-3.3c6.7,0,9,2.8,9,8.7v2.1c-17.4,0-28.8,5.6-28.8,17.3    c0,8.1,5.3,14.1,14.2,14.1c7.5,0,13.6-4,16-9.6l0.1,0.1c-0.4,2.6-0.5,5.6-0.5,8.6c6.4,0.2,14-0.1,20.3-0.9v-7.7    c-2.9-0.2-6.3-0.6-8.7-1V400.4z M441.6,413c0,5.9-4.2,12.1-10.6,12.1c-3.8,0-6.1-2.6-6.1-6c0-4.3,3.6-7.6,16.7-7.6V413z"/>
		<g>
			<path class="st2" d="M497,270.2h-86.3v48.2H497c62.8,0,85.9-4.8,85.9-4.8v-48.7C582.9,264.9,559.5,270.2,497,270.2z"/>
			<path class="st2" d="M298.8,258l15.7,36.8c11.6-0.1,23.4-0.2,35.4-0.2c18.2,0,36,0.2,53.3,0.4v-33.6l72.4-9.4     c0,0-10.1-1.7-37.4-3.7s-66.6-1.3-66.6-1.3s-15.8,5.3-21.8,6.4c-6.1-1.1-21.8-6.4-21.8-6.4s-39-0.7-66.3,1.3s-45.5,4.9-45.6,4.9     L298.8,258z"/>
			<path class="st1" d="M295.3,262.7l0.1,32.4c6.3-0.1,12.6-0.2,19.1-0.3L298.8,258l-82.8-4.8v9.3     C271.9,262.3,295.3,262.7,295.3,262.7z"/>
			<path class="st2" d="M287.8,270.2h-85.3c-62.5,0-85.9-5.3-85.9-5.3v48.7c0,0,23.1,4.8,85.9,4.8h85.3V270.2z"/>
			<path class="st1" d="M124.2,266.2c-5.3-0.7-7.6-1.3-7.6-1.3v48.7c0,0,8.3,1.7,28.6,3.1C131.7,301.6,125.2,282.8,124.2,266.2z"/>
			<g>
				<path class="st3" d="M145.2,281.9h9.2v2.9h-2.5l5.8,16.2c0.2,0.7,0.4,1.4,0.6,2.1h0.1c0.2-0.7,0.3-1.5,0.6-2.1l5.7-16.2h-2.8      v-2.9h9v2.9h-2.2l-8.4,21.6H156l-8.5-21.6h-2.1v-2.9H145.2z"/>
				<path class="st3" d="M173.1,303.5h2.4l0.1-18.8H173v-2.9h11c5,0,7.4,2.9,7.4,6.5c0,4.2-2.7,6.2-5.8,6.5v0.1      c1.4,0.1,2.3,1.3,3.1,2.7l2.7,4.5c0.7,1.2,1.4,1.5,2.2,1.5h0.9v2.9h-2.3c-2.1,0-3-0.2-4.4-2.6l-3.4-5.7c-1-1.8-1.5-2.1-2.7-2.1      h-2.1l-0.1,7.6h2.8v2.9h-9.2L173.1,303.5L173.1,303.5z M182.6,292.8c2.8,0,4.7-1.5,4.7-4.1s-1.6-4-4.4-4h-3.3l-0.1,8.1H182.6z"/>
				<path class="st3" d="M197.5,303.5h2.5v-18.8h-2.8v-2.9h17.2l0.1,6.4h-3.3l-0.2-3.6h-7l-0.1,7.6h7v3.1h-7l-0.1,8.1h7.5l0.3-4h3.3      l-0.3,6.9h-17.2v-2.8H197.5z"/>
				<path class="st3" d="M218.8,303.5h2.5l0.1-18.8h-2.6v-2.9h11.6c7.9,0,12.4,4.6,12.4,11.7c0,7.2-4.6,12.8-12.4,12.8h-11.6V303.5z       M229.2,303.5c6,0,9.3-3.6,9.3-9.8c0-5.5-3.2-9-9.2-9h-4l-0.1,18.8H229.2z"/>
				<path class="st3" d="M245.6,303.5h2.5l0.1-18.8h-2.8v-2.9h17.2l0.1,6.4h-3.3l-0.2-3.6h-7.1l-0.1,7.6h7v3.1h-7l-0.1,8.1h7.5      l0.3-4h3.3l-0.3,6.9h-17.2v-2.8H245.6z"/>
			</g>
			<g>
				<path class="st3" d="M435.8,303.5h2.4l0.1-18.8h-2.6v-2.9h10.9c5,0,7.4,2.9,7.4,6.5c0,4.2-2.7,6.2-5.8,6.5v0.1      c1.4,0.1,2.3,1.3,3.1,2.7l2.7,4.5c0.7,1.2,1.4,1.5,2.2,1.5h0.9v2.9h-2.3c-2.1,0-3-0.2-4.4-2.6l-3.4-5.7c-1-1.8-1.5-2.1-2.7-2.1      h-2.1l-0.1,7.6h2.8v2.9h-9.2v-3.1H435.8z M445.3,292.8c2.8,0,4.7-1.5,4.7-4.1s-1.6-4-4.4-4h-3.3l-0.1,8.1H445.3z"/>
				<path class="st3" d="M460.1,303.5h2.5l0.1-18.8h-2.8v-2.9h17.2l0.1,6.4H474l-0.2-3.6h-7.1l-0.1,7.6h7v3.1h-7l-0.1,8.1h7.5l0.3-4      h3.3l-0.3,6.9h-17.2L460.1,303.5L460.1,303.5z"/>
				<path class="st3" d="M497.7,289v-3.9c-0.9-0.2-2.3-0.6-4.2-0.6c-5.8,0-8.9,3.6-8.9,9.7c0,5.6,3.4,9.5,8.4,9.5      c1.7,0,3.5-0.2,4.4-0.4l0.1-4.4h3.5l-0.1,6.7c-1.6,0.5-4.7,1.2-7.6,1.2c-8.8,0-13-5.5-13-12.4c0-7.6,5.1-12.9,13.3-12.9      c3.1,0,6,0.7,7.6,1.3v6.3h-3.5V289z"/>
				<path class="st3" d="M520.3,303.5h2.5l0.1-7.9h-11.4l-0.1,7.9h2.6v2.9h-9v-2.9h2.5l0.1-18.8H505v-2.9h9v2.9h-2.5l-0.1,7.8h11.4      l0.1-7.8h-2.6v-2.9h9v2.9h-2.5l-0.1,18.8h2.6v2.9h-9V303.5z"/>
				<path class="st3" d="M538.6,303.5h2.5l0.1-18.8h-5.7l-0.1,3.6H532l0.1-6.4h22.2l0.1,6.4H551l-0.1-3.6h-5.6l-0.1,18.8h2.8v2.9      h-9.3v-2.9H538.6z"/>
			</g>
			<g>
				<path class="st4" d="M351,50.5c23.4,0,41,1.1,52.8,2.3l2.7-21.3C395,30.5,373.4,28,350,28c-23.7,0-45.9,2.6-57.6,3.6l2.8,21.6      C306.7,51.9,325.4,50.5,351,50.5z M388.3,41c0.2-1.8,2.3-2.9,5.3-2.9c0.5,0,0.9,0,1.4,0.1c1.6,0.2,3,0.7,4.1,1.4      c1.3,0.8,1.9,1.9,1.7,3c-0.2,1.7-2.3,2.9-5.3,2.9c-0.5,0-0.9,0-1.4-0.1C390.5,44.9,388,43,388.3,41z M372.1,35.7l7.2,3.9      l-7.4,3.6l-7.2-3.9L372.1,35.7z M349.4,35c3.9,0,6.8,1.7,6.8,3.9s-2.9,3.9-6.8,3.9s-6.8-1.7-6.8-3.9      C342.6,36.6,345.6,35,349.4,35z M326.8,35.7l7.4,3.5l-7.2,3.9l-7.4-3.6L326.8,35.7z M299.8,39.5c1.1-0.7,2.5-1.2,4.1-1.4      c0.5-0.1,0.9-0.1,1.4-0.1c3,0,5.1,1.2,5.3,2.9c0.3,2.1-2.3,3.9-5.8,4.4c-0.5,0.1-0.9,0.1-1.4,0.1c-3,0-5.1-1.2-5.3-2.9      C297.9,41.4,298.5,40.3,299.8,39.5z"/>
				<g>
					<g>
						<path class="st4" d="M355.5,5.8c0-3.1-2.5-5.7-5.7-5.7c-3.1,0-5.7,2.5-5.7,5.7c0,3.1,2.5,5.7,5.7,5.7        C352.9,11.5,355.5,8.9,355.5,5.8z M295,9.6c0-3.1-2.5-5.7-5.7-5.7c-3.1,0-5.7,2.5-5.7,5.7c0,3.1,2.5,5.7,5.7,5.7        C292.4,15.3,295,12.8,295,9.6z M343.3,12.8c-3.1,0-5.7,2.5-5.7,5.7c0,3.1,2.5,5.7,5.7,5.7c3.1,0,5.7-2.5,5.7-5.7        S346.4,12.8,343.3,12.8z M330.3,13.7c-3.1,0-5.7,2.5-5.7,5.7c0,3.1,2.5,5.7,5.7,5.7s5.7-2.5,5.7-5.7        C335.9,16.3,333.4,13.7,330.3,13.7z M317.2,14.7c-3.1,0-5.7,2.5-5.7,5.7c0,3.1,2.5,5.7,5.7,5.7c3.1,0,5.7-2.5,5.7-5.7        C322.9,17.2,320.4,14.7,317.2,14.7z M304.2,15.6c-3.1,0-5.7,2.5-5.7,5.7c0,3.1,2.5,5.7,5.7,5.7c3.1,0,5.7-2.5,5.7-5.7        C309.9,18.2,307.4,15.6,304.2,15.6z M291.2,16.6c-3.1,0-5.7,2.5-5.7,5.7c0,3.1,2.5,5.7,5.7,5.7c3.1,0,5.7-2.5,5.7-5.7        C296.9,19.1,294.3,16.6,291.2,16.6z M356.3,12.8c-3.1,0-5.7,2.5-5.7,5.7c0,2.5,1.6,4.5,3.7,5.3l5.6-9.7        C359,13.3,357.7,12.8,356.3,12.8z"/>
						<path class="st5" d="M410.3,4c-3.1,0-5.7,2.5-5.7,5.7c0,3.1,2.5,5.7,5.7,5.7c3.1,0,5.7-2.5,5.7-5.7S413.4,4,410.3,4z         M408.4,16.6c-3.1,0-5.7,2.5-5.7,5.7c0,3.1,2.5,5.7,5.7,5.7c3.1,0,5.7-2.5,5.7-5.7S411.5,16.6,408.4,16.6z M395.4,15.6        c-3.1,0-5.7,2.5-5.7,5.7c0,3.1,2.5,5.7,5.7,5.7c3.1,0,5.7-2.5,5.7-5.7C401,18.2,398.5,15.6,395.4,15.6z M382.3,14.7        c-3.1,0-5.7,2.5-5.7,5.7c0,3.1,2.5,5.7,5.7,5.7c3.1,0,5.7-2.5,5.7-5.7S385.5,14.7,382.3,14.7z M369.3,13.7        c-3.1,0-5.7,2.5-5.7,5.7c0,3.1,2.5,5.7,5.7,5.7c3.1,0,5.7-2.5,5.7-5.7C375,16.3,372.5,13.7,369.3,13.7z M360,14.1l-5.6,9.7        c0.6,0.2,1.2,0.3,1.9,0.3c3.1,0,5.7-2.5,5.7-5.7C362,16.7,361.2,15.1,360,14.1z"/>
					</g>
				</g>
				<path class="st5" d="M349.4,42.7c-2.3,0-4.3-0.6-5.5-1.5l-5.6,9.4c4-0.1,8.2-0.1,12.6-0.1c23.4,0,41,1.1,52.8,2.3l2.7-21.3      c-11.2-1-31.9-3.4-54.6-3.5l-4.3,7.2c0.6-0.1,1.2-0.1,1.9-0.1c3.9,0,6.8,1.7,6.8,3.9C356.2,41.1,353.3,42.7,349.4,42.7z       M388.3,41c0.2-1.8,2.3-2.9,5.3-2.9c0.5,0,0.9,0,1.4,0.1c1.6,0.2,3,0.7,4.1,1.4c1.3,0.8,1.9,1.9,1.7,3c-0.2,1.7-2.3,2.9-5.3,2.9      c-0.5,0-0.9,0-1.4-0.1C390.5,44.9,388,43,388.3,41z M372.1,35.7l7.2,3.9l-7.4,3.6l-7.2-3.9L372.1,35.7z"/>
			</g>
			<path class="st1" d="M403.2,261.4v1.2h80.6v-9.4c0,0-3-0.5-8.2-1.1L403.2,261.4z"/>
			<path class="st1" d="M577.6,314.5c3.6-0.6,5.2-0.8,5.2-0.8V265c0,0-5.8,1.3-19.2,2.6C572.8,278.6,576.4,296.7,577.6,314.5z"/>
			<g>
				<g>
					<path class="st3" d="M329.8,279.9h2.1l0.1-16.2h-2.5v-2.5h14.9l0.1,5.6h-2.8l-0.2-3.1h-6.1l-0.1,6.5h6.1v2.7h-6.1l-0.1,7h6.5       l0.2-3.5h2.8l-0.2,5.9h-14.8v-2.4H329.8z"/>
					<path class="st3" d="M348.4,279.9h2.1l0.1-16.2h-2.7v-2.5h5.6l9.8,12.8c0.6,0.8,1.5,2.2,2.1,3.2h0.1l-0.1-13.5H363v-2.5h7.4       v2.5h-2.1l-0.1,18.7h-2.8l-10.5-13.7c-0.6-0.8-1.2-1.6-1.5-2.2l-0.1,0.1l0.1,13.5h2.3v2.5h-7.4v-2.7H348.4z"/>
				</g>
			</g>
			
				<linearGradient id="SVGID_1_" gradientUnits="userSpaceOnUse" x1="1328.4727" y1="224.2019" x2="1328.4727" y2="224.2019" gradientTransform="matrix(-1 0 0 -1 1830.9727 443.4038)">
				<stop offset="0" style="stop-color:#B98F16"/>
				<stop offset="1" style="stop-color:#D2AD15"/>
			</linearGradient>
			<path class="st6" d="M502.5,219.2L502.5,219.2L502.5,219.2z"/>
			<g>
				<path class="st5" d="M577.2,119.1c0-11-14.7-7.5-22.8-7.5s-7.5-10.4-7.5-10.4c2.7,0,7.9,0,15.3,0      C574.5,101.2,582.4,108.7,577.2,119.1z"/>
				<path class="st7" d="M529.6,96.6c3.6-3.6,7.3-5.6,12.6-5.6c11.7,0,28.7-0.7,31-6.9c2.1,2.2,1.9,6.5-3.1,11.5      c13.2,0,15.5,3,16.9,5.8c3.4,7.3-2.5,17.7-9.7,17.7c5.2-10.4-2.7-17.9-14.9-17.9c-7.5,0-12.6,0-15.3,0h-2.3h-2.5      c-1.8,0-3.8,0.9-5.4,2.6c-3.5,3.5-3.5,9.1,0,12.6l24.1,24.3c1.5,1.5,2.6,3.3,3.5,5.1l-40-30.7      C522.8,108.7,524.5,101.6,529.6,96.6z"/>
			</g>
			<path class="st8" d="M500.9,72.8c-0.2-0.7-0.3-1.4-0.4-2.1c3.5-4.1,9.4-5.8,17.4-2.4c10,4.2,19.1-3.1,19.1-3.1     c-6.9,13.2-16.4,8.9-24.7,6.3C507.8,70.1,503.5,71.5,500.9,72.8z"/>
			<path class="st8" d="M458.8,122.4c-8.5-4.9-15.3-8.4-15.4-8.4l0,0l3.2,14c0,0-9.6,15.6-14.7,24.1c0.1,0.1,0.2,0.1,0.3,0.2     C432.2,152.2,458.8,122.4,458.8,122.4L458.8,122.4L458.8,122.4z"/>
			<path class="st5" d="M504.8,100.3c0-10.3-6.9-14.5-10-15.8c-4.6-0.2-9.3,0.2-13.4,1.9c1.3,12.1,18.7,28.3,29.2,31.9     c0.1,0,0.2,0.1,0.2,0.1C505.8,114.5,514.1,100.3,504.8,100.3z"/>
			<path class="st4" d="M469.4,128.7L469.4,128.7c-3.6-2.2-7.2-4.3-10.6-6.3l0,0l-26.6,29.8c-1.5-0.8-3.1-1.3-4.9-1.3v10.5l0,0     c-4.5,1-7.5,4.7-7.5,10.4h7.5v9.3c1,1.1,2.5,1.8,4.1,1.9L469.4,128.7L469.4,128.7z"/>
			<path class="st5" d="M508.5,128.3c-10.4,6.5-31,5.6-31,5.6l0,0c0,0,5.8,3.6,11.9,9.4l40.6,6.4C530,149.7,516.9,136.7,508.5,128.3     z"/>
			<path class="st5" d="M552.9,201.5c-4.7,0-18.9-1.9-18.9-12.3c0-6.1,0-21.6,0-21.6l-10.8,17.7l-0.1,17.9     c17.5,20.1,13.1,43,5.1,52.2v6.9c5-0.1,9.9-0.2,14.5-0.4l-1.2-5.2l6.5-11.3C547.9,245.5,545.1,209.3,552.9,201.5z"/>
			<path class="st7" d="M469.4,128.7l-38,54.3c0.1,0,0.1,0,0.2,0c0.6,0,13.4-9.5,13.4-9.5l32.4-39.6     C474.9,132.1,472.2,130.4,469.4,128.7L469.4,128.7z"/>
			<path class="st9" d="M481.4,86.3c-14,7.3-20.5,28.2-38,27.6c0,0,19.9,10.3,34.1,19.9c0,0,36.8,1.7,36.8-14.9     C504.9,119,482.9,100,481.4,86.3z"/>
			<path class="st4" d="M446.1,101.5c3-7.9,4.2-20.7,7.5-33.4L437.7,58l-3.8-6.6H416l-3.3,5.8c6.9,0.7,11.3,1.2,11.5,1.2l3.1,0.4v25     L446.1,101.5z"/>
			<path class="st7" d="M467.6,40.7V30l11,4.9c-0.1-0.6-0.3-3.6,4.9-6.5c-0.2,3.2,4.5,5.6,9.9,7.3c-5.6,13.1-14,33.2-12.1,50.7     c-14,7.3-20.5,28.2-38,27.6c0,0-4.5-2.1-6-4.7C454.1,109.2,445.1,63.3,467.6,40.7z"/>
			<path class="st7" d="M513.2,214.5c5.4,5.4,8.6,11.7,8.6,17.8c0,13.7-9.3,18.7-9.3,18.7c-11-3.5-14.1,7.6-14.8,11.7     c3.9,0,7.9,0,12.1,0c6,0,12.6-0.1,18.3-0.2v-6.9c8-9.2,12.4-32.1-5.1-52.2L513.2,214.5z"/>
			<path class="st7" d="M502.5,195.4c0-2.2,0-6,0-8.1l0,0c0,0.5,0,1,0,1.5l-34.1,7.9l-22.5,44.4c6.8,0.6,12.8,1.1,18.1,1.7l-2.2-5.7     l27.5-39.2L502.5,195.4z"/>
			<path class="st4" d="M452.5,200.4c-2.5,22.2-17.1,29.2-17.1,29.2s-2.8-0.7-5.7-0.7c-6.4,0-9.5,10.6-9.5,10.6     c3.4,0.2,6.9,0.4,10.5,0.6c3,0.2,5.9,0.3,8.8,0.5c2.2,0.2,4.3,0.3,6.4,0.5l22.6-44.4L452.5,200.4z"/>
			<path class="st5" d="M502.5,175l-14.6-10.7L447,198.1c0,0,2.1,3,5.5,2.4l50-11.6C502.5,183.5,502.5,178.7,502.5,175z"/>
			<path class="st7" d="M477.5,133.9l-11.6,14.3l36.6,26.9c0-4.2,0-6.9,0-6.9c0-2.3-0.4-4.6-1.1-6.8c-2.1-7.1-7.1-13.3-12-18     C483.5,137.6,477.8,134.1,477.5,133.9L477.5,133.9z"/>
			<path class="st4" d="M520.2,52.5l-9.4-7l-1.6-6.7c0,0-8.5-0.9-15.7-3.2c-5.6,13.1-14,33.2-12.1,50.7c13-5.3,32.8,1.9,32.8,1.9     l-3.1-8.4l4.6-5.3l-13.5,1.6c-4-9-0.7-13.4,8-13.4c3.6,0,6.4,1.8,6.4,1.8l1.9-6.1l-1.6-3l2.3,0.2L520.2,52.5z M499.4,46.5     c-2.5,0.1-4.5-1.5-4.6-3.6c0-0.2,0-0.5,0.1-0.7c3,0.2,6.2,0.6,8.8,1C503.4,45,501.6,46.4,499.4,46.5z"/>
			
				<linearGradient id="SVGID_2_" gradientUnits="userSpaceOnUse" x1="1548.4137" y1="224.2019" x2="1548.4137" y2="224.2019" gradientTransform="matrix(1 0 0 -1 -1351.5137 443.4038)">
				<stop offset="0" style="stop-color:#B98F16"/>
				<stop offset="1" style="stop-color:#D2AD15"/>
			</linearGradient>
			<path class="st10" d="M196.9,219.2L196.9,219.2L196.9,219.2z"/>
			<g>
				<path class="st5" d="M122.3,119.1c0-11,14.7-7.5,22.8-7.5s7.5-10.4,7.5-10.4c-2.7,0-7.9,0-15.3,0      C124.9,101.1,117.1,108.7,122.3,119.1z"/>
				<path class="st4" d="M169.9,96.6c-3.6-3.6-7.3-5.6-12.6-5.6c-11.7,0-28.7-0.7-31-6.9c-2.1,2.2-1.9,6.5,3.1,11.5      c-13.2,0-15.5,3-16.9,5.8c-3.4,7.3,2.5,17.7,9.7,17.7c-5.2-10.4,2.7-17.9,14.9-17.9c7.5,0,12.6,0,15.3,0h2.3h2.5      c1.8,0,3.8,0.9,5.4,2.6c3.5,3.5,3.5,9.1,0,12.6l-24.3,24.3c-1.5,1.5-2.6,3.3-3.5,5.1l40-30.7      C176.6,108.7,174.9,101.6,169.9,96.6z"/>
			</g>
			<path class="st8" d="M198.5,72.8c0.2-0.7,0.3-1.4,0.4-2.1c-3.5-4.1-9.4-5.8-17.4-2.4c-10,4.2-19.1-3.1-19.1-3.1     c6.9,13.2,16.4,8.9,24.7,6.3C191.7,70.1,195.9,71.5,198.5,72.8z"/>
			<path class="st4" d="M240.7,122.4c8.5-4.9,15.3-8.4,15.4-8.4l0,0l-3.2,14c0,0,9.6,15.6,14.7,24.1c-0.1,0.1-0.2,0.1-0.3,0.2     L240.7,122.4L240.7,122.4C240.6,122.4,240.7,122.4,240.7,122.4z"/>
			<path class="st5" d="M204.7,84.4c-3.1,1.4-10,5.6-10,15.8c-9.4,0-1.1,14.2-6.1,18.1c0.1,0,0.2-0.1,0.2-0.1     c10.5-3.6,27.9-19.8,29.2-31.9C214,84.7,209.3,84.2,204.7,84.4z"/>
			<path class="st7" d="M230.1,128.6L230.1,128.6c3.6-2.2,7.2-4.3,10.6-6.3l0,0l26.6,29.8c1.5-0.8,3.1-1.3,4.9-1.3v10.5l0,0     c4.5,1,7.5,4.7,7.5,10.4h-7.5v9.3c-1,1.1-2.5,1.8-4.1,1.9L230.1,128.6C230,128.7,230.1,128.7,230.1,128.6z"/>
			<path class="st4" d="M191,128.3c10.4,6.5,31,5.6,31,5.6l0,0c0,0-5.8,3.6-11.9,9.4l-40.7,6.5C169.5,149.7,182.6,136.6,191,128.3z"/>
			<path class="st9" d="M146.6,201.5c4.7,0,18.9-1.9,18.9-12.3c0-6.1,0-21.6,0-21.6l10.8,17.7l0.1,17.9c-17.5,20.1-13.1,43-5.1,52.2     v6.9c-5-0.1-9.9-0.2-14.5-0.4l1.2-5.2l-6.5-11.3C151.5,245.5,154.3,209.3,146.6,201.5z"/>
			<path class="st4" d="M171.3,262.4c5.7,0.1,12.2,0.2,18.3,0.2c4.2,0,8.3,0,12.1,0c-0.8-4.1-3.8-15.2-14.8-11.7c0,0-9.3-5-9.3-18.7     c0-6.1,3.2-12.3,8.6-17.8l-9.8-11.2c-17.5,20.1-13.1,43-5.1,52.2V262.4z"/>
			<path class="st5" d="M230,128.7l38,54.3c-0.1,0-0.1,0-0.2,0c-0.6,0-13.4-9.5-13.4-9.5L222,133.8     C224.5,132.1,227.2,130.4,230,128.7L230,128.7z"/>
			<path class="st9" d="M185.2,119c0,16.6,36.8,14.9,36.8,14.9c14.2-9.6,34-19.9,34.1-19.9c-17.5,0.6-23.9-20.4-38-27.6     C216.6,100,194.5,119,185.2,119z"/>
			<path class="st5" d="M253.4,101.5c-3-7.9-4.2-20.7-7.5-33.4L261.8,58l3.8-6.6h17.9l3.3,5.8c-6.9,0.7-11.3,1.2-11.5,1.2l-3.1,0.4     v25L253.4,101.5z"/>
			<path class="st4" d="M231.8,40.7V30l-11,4.9c0.1-0.6,0.3-3.6-4.9-6.5c0.2,3.2-4.5,5.6-9.9,7.3c5.6,13.1,14,33.2,12.1,50.7     c14,7.3,20.5,28.2,38,27.6c0,0,4.5-2.1,6-4.7C245.4,109.2,254.4,63.3,231.8,40.7z"/>
			<path class="st7" d="M210.1,143.2L210.1,143.2L210.1,143.2L210.1,143.2z M138.5,167.6c3.6,3.6,8.4,5.6,13.5,5.6s9.9-2,13.5-5.6     l10.8,17.7l0.1,17.9l20.5,23.5c0-6.5,0.1-58.7,0.1-58.7c0-2.3,0.4-4.6,1.1-6.8c2.1-7.1,7.1-13.3,12-18l-40.7,6.5l-8.3,8.2     c0,0-9,9-15.5,2.5c-3.5-3.5-3.5-9.1,0-12.6l24.3-24.3c2.4-2.4,4-5.3,4.9-8.4l-40,30.7C131.4,152.9,132.6,161.7,138.5,167.6z"/>
			<path class="st9" d="M197,195.3c0-2.2,0-6,0-8.1l0,0c0,0.5,0,1,0,1.5l34,8l22.5,44.4c-6.8,0.6-12.8,1.1-18.1,1.7l2.2-5.7     l-27.5-39.2L197,195.3z"/>
			<path class="st5" d="M246.9,200.4c2.5,22.2,17.1,29.2,17.1,29.2s2.8-0.7,5.7-0.7c6.4,0,9.5,10.6,9.5,10.6     c-3.4,0.2-6.9,0.4-10.5,0.6c-3,0.2-5.9,0.3-8.8,0.5c-2.2,0.2-4.3,0.3-6.4,0.5L231,196.7L246.9,200.4z"/>
			<path class="st4" d="M197,175l14.6-10.7l40.8,33.8c0,0-2.1,3-5.5,2.4l-50-11.6C197,183.5,197,178.6,197,175z"/>
			<path class="st8" d="M222,133.8l11.6,14.3L197,175c0-4.2,0-6.9,0-6.9c0-2.3,0.4-4.6,1.1-6.8c2.1-7.1,7.1-13.3,12-18     C216,137.6,221.6,134.1,222,133.8L222,133.8z"/>
			<path class="st7" d="M206,35.6c-7.2,2.2-15.7,3.2-15.7,3.2l-1.6,6.7l-9.4,7l1,3l2.3-0.2l-1.6,3l1.9,6.1c0,0,2.8-1.8,6.4-1.8     c8.7,0,12,4.4,8,13.4l-13.5-1.6l4.6,5.3l-3.1,8.4c0,0,19.8-7.2,32.8-1.9C220,68.8,211.6,48.7,206,35.6z M200,46.4     c-2.2-0.1-4-1.5-4.3-3.2c2.6-0.4,5.8-0.8,8.8-1c0,0.2,0.1,0.5,0.1,0.7C204.6,44.9,202.5,46.5,200,46.4z"/>
			<path class="st5" d="M419.9,192.4c0,39.4-70.1,53.3-70.1,53.3s-70.1-13.9-70.1-53.3c0-35.4,0-127,0-127s23.7-4.5,70.1-4.5     s70.1,4.5,70.1,4.5S419.9,159.8,419.9,192.4z"/>
			<path class="st8" d="M349.7,245.7c0,0,70.1-13.9,70.1-53.3c0-32.6,0-127,0-127s-23.7-4.5-70.1-4.5c-10.9,0-20.6,0.2-29,0.6     c63.3,2.5,88.6,11.1,88.6,11.1s0.1,88.6,0.1,121.1C409.4,226.2,349.7,245.7,349.7,245.7z"/>
			<path class="st11" d="M363.9,137.8l-5.4-0.7l-1.7,2.2l-12.5-8c1.3,6.3,4.7,18.3,13.5,28.6c5.9,4.3,12,8.7,16.9,12.2     c-0.4-20.6-7.4-32-9.2-36.6L363.9,137.8z"/>
			<g>
				<path class="st3" d="M338.2,145.8c-6.6-4.7-4.4-14-0.1-18.3l18.7,11.9l1.7-2.2l5.4,0.7l1.7-2.2l13.9,2.4      c-2.6-4.1-6.9-10.8-13.4-15.3l1.7-2.2c-3.3-1.6-11-2.8-19.8-2.8c-6.6,0-13.5,0-13.5,0l9.5-27.2c2.5-7.3-2-13.2-6.9-13.7      c-7.4-0.8-10.5,7.2-10.5,7.2l8.1,8.3c0.2,0-10.5,25-10.5,25c-1.1,2.6-1.8,6-1.8,9.6c0,7,3.1,14.1,9.6,20.4      c5.5,5.4,29.4,24.1,29.4,24.1l1.9-2.6l11.6,3.4C374.7,172.2,340.1,147.1,338.2,145.8z"/>
			</g>
			<path class="st12" d="M344.3,131.4l-6.2-3.9c-4.3,4.4-6.5,13.6,0.1,18.3c2,1.4,10.5,7.6,19.6,14.2     C349,149.7,345.6,137.7,344.3,131.4z"/>
			<path d="M379.4,138l-13.9-2.4c1.8,4.6,8.8,15.9,9.2,36.6c5.5,4,9.4,6.8,9.4,6.8l2.7-3.6l7.2,5c-0.4-3.3-0.9-6.4-1.6-9.3     C389.3,156.4,384.2,145.5,379.4,138z"/>
			<path class="st11" d="M367.3,223.2c-0.3-0.8-0.9-1.5-2-1.5h-4v-19.1l-3.3,1.5v17.5h-6.1c-0.7,0-2.1,1-2.5,1h-2.7     c-1.1,0-1.7,0.7-2,1.5l-0.2,0.6l-0.1,0.8c0,0.2,0,0.4,0,0.4h6.6l1.4-1h2.8c-1.7,1.1-3.6,2.2-4.3,2.6c-0.9,0.6-1.1,1.5-0.9,2.3     l0.1,0.6l0.3,0.7c0.1,0.2,0.2,0.4,0.2,0.4l11.2-6.6h6.1c0,0,0-0.2,0-0.4l-0.2-0.8L367.3,223.2z"/>
			<path class="st12" d="M309.3,152.5l-0.6,0.8l0.4,5.4l1-1.4l0.7,0.1l4.3,7.4c0,0,0.1,0,0.1-0.1l0.5-0.4l0.5-0.4     c0.6-0.7,1.1-1.6,0.5-2.7c-0.2-0.3-0.4-0.8-0.8-1.4l12.6,6l5.2-1.2l-20.7-9.8c-0.5-0.8-1.1-2-1.1-2     C311.6,152.3,310.3,152,309.3,152.5z"/>
			<polygon points="334.6,92.3 326.4,84 291.4,92.3    "/>
			<path class="st11" d="M308,154.2l-6.7,0.9c0,0-2,2.6-3,3.9c-0.7,0.9-0.4,1.8,0,2.5l0.4,0.5l0.5,0.5c0.2,0.2,0.3,0.3,0.3,0.3     l3.4-4.6l2.8-0.4c-1.3,1.8-2.7,3.7-3.2,4.3c-0.7,0.9-0.4,1.8,0,2.5l0.4,0.6l0.4,0.5c0.2,0.2,0.3,0.3,0.3,0.3l5.4-7.3l-0.4-5.4     L308,154.2z"/>
			<path class="st11" d="M353.3,165c-1-0.8-2.2-1.7-3.3-2.6v9.6l-0.5,0.1l-15.7-7.5l-5.2,1.2l19.6,9.3l2,2.6l3.2-0.5l1.2-3.1     l-1.4-1.8L353.3,165L353.3,165z"/>
			<path d="M339.2,83.9c0,0-3.8,1.7-4.7,1.7c-0.9,0-1.8-0.8-1.8-1.7s0.9-1.7,1.8-1.7C335.4,82.3,339.2,83.9,339.2,83.9z"/>
			<path d="M300.7,104.8c-2.4-4.2,0.4-6.7,2.3-8.7c1.4-1.4,2.6-2.6,2.6-4.4c0-2.4-1.3-2.8-4.6-3.3c-2-0.3-4-0.6-5.1-2.1     c-0.7-0.8-0.9-1.8-0.8-2.9c0.3-2.3,2.7-4,2.9-4.2c0.7-0.5,1.6-0.3,2,0.4c0.5,0.7,0.3,1.6-0.4,2c-0.5,0.4-1.6,1.4-1.7,2.2     c0,0.2,0,0.4,0.2,0.6c0.4,0.6,1.9,0.8,3.3,1c2.9,0.4,7.2,1,7.1,6.2c0,3-1.9,4.8-3.5,6.5c-1.8,1.9-3.3,3.2-2.3,5.8     c0.7,1.7,3.6,2.6,3,3.6C305.3,108.6,301.9,106.8,300.7,104.8z"/>
			<path d="M361.3,171.3c0,0-1.3-1-3.3-2.6v6l0,0l-1.6,2.9l1.6,2.8v23.7l3.3-1.5v-22.1l1.6-2.9l-1.6-2.9V171.3z"/>
			<line class="st0" x1="385.8" y1="176.8" x2="384.2" y2="179"/>
			<path class="st12" d="M385.2,132.7c-5-5.2-11-9.4-17.6-12.2l-1.6,2.2c6.5,4.5,10.9,11.1,13.4,15.3c4.8,7.5,9.9,18.4,13,33     c0.7,2.9,1.2,6,1.6,9.3l6.9,4.9C404.5,165.1,397.8,145.7,385.2,132.7z"/>
			<path class="st4" d="M489.3,143.3L489.3,143.3L489.3,143.3L489.3,143.3z M564.6,145.8l-40-30.7c0.8,3.1,2.5,6,4.9,8.4l24.3,24.3     c3.5,3.5,3.5,9.1,0,12.6c-6.5,6.5-15.5-2.5-15.5-2.5l-8.3-8.2l-40.7-6.5c4.9,4.7,9.9,10.9,12,18c0.7,2.2,1.1,4.5,1.1,6.8     c0,0,0.1,52.1,0.1,58.7l20.5-23.5l0.1-17.9l10.8-17.7c3.6,3.6,8.4,5.6,13.5,5.6s9.9-2,13.5-5.6     C566.8,161.7,568,152.9,564.6,145.8z"/>
		</g>
	</g>
</g>
</svg>