<svg width="24" height="24" viewBox="0 0 24 24" fill="none" xmlns="http://www.w3.org/2000/svg">
<path d="M17.86 22H21.9988L22 14.6681C22 11.0698 21.2244 8.30548 17.0309 8.30548C15.0127 8.30548 13.6618 9.41354 13.1063 10.4633H13.0528V8.64256H9.07698V22H13.2158V15.3901C13.2158 13.6475 13.5454 11.9621 15.7033 11.9621C17.8286 11.9621 17.86 13.9554 17.86 15.5044V22Z" fill="#4B4B4B"/>
<path d="M2 4.40625C2 5.73476 3.07022 6.81484 4.40247 6.81484C5.72889 6.81484 6.8061 5.73476 6.8061 4.40625C6.8061 3.07891 5.73006 2 4.40247 2C3.07139 2 2 3.07891 2 4.40625Z" fill="#4B4B4B"/>
<path d="M2.32724 22H6.4777V8.64256H2.32724V22Z" fill="#4B4B4B"/>
</svg>
