<svg width="24" height="24" viewBox="0 0 24 24" fill="none" xmlns="http://www.w3.org/2000/svg">
<path d="M17.0398 14.1835C16.7639 14.046 15.4201 13.3888 15.1698 13.298C14.9196 13.2054 14.7362 13.1605 14.5529 13.4355C14.3723 13.7059 13.8462 14.3192 13.6876 14.5007C13.5272 14.6794 13.3677 14.6932 13.0954 14.5694C12.8204 14.4319 11.9377 14.1432 10.8927 13.2082C10.0787 12.4794 9.53233 11.5857 9.371 11.3107C9.2115 11.0357 9.35358 10.8844 9.49017 10.7469C9.61483 10.6232 9.76608 10.4307 9.90358 10.2675C10.0374 10.1016 10.0814 9.99158 10.1758 9.81283C10.2675 9.62033 10.2207 9.46908 10.1529 9.3325C10.0842 9.195 9.53692 7.8475 9.30775 7.31033C9.08775 6.775 8.86133 6.84283 8.69175 6.84283C8.53408 6.82908 8.35167 6.82908 8.16833 6.82908C7.985 6.82908 7.68892 6.89692 7.43775 7.15817C7.1875 7.43317 6.47983 8.09317 6.47983 9.42692C6.47983 10.7607 7.46067 12.0532 7.59725 12.2457C7.73383 12.4244 9.52683 15.1744 12.2723 16.3569C12.9268 16.6319 13.4364 16.7969 13.8343 16.9335C14.4888 17.1416 15.0855 17.1123 15.5576 17.0444C16.0837 16.961 17.1773 16.3835 17.4056 15.7373C17.6393 15.091 17.6393 14.5548 17.5706 14.431C17.5028 14.3073 17.3231 14.2385 17.0481 14.1148L17.0398 14.1835ZM12.0559 20.9375H12.0413C10.4188 20.9375 8.81092 20.4975 7.4075 19.6725L7.0775 19.4763L3.64 20.3701L4.56125 17.0288L4.34217 16.6851C3.43467 15.2404 2.9525 13.5767 2.9525 11.8634C2.9525 6.87217 7.03625 2.80217 12.066 2.80217C14.4988 2.80217 16.7823 3.75092 18.5019 5.46967C20.2207 7.17375 21.1685 9.45717 21.1685 11.8772C21.1648 16.8675 17.0802 20.9384 12.0614 20.9384L12.0559 20.9375ZM19.81 4.16158C17.72 2.14125 14.97 1 12.0413 1C6.00775 1 1.09533 5.8895 1.09258 11.9019C1.09258 13.8232 1.59583 15.6969 2.55467 17.3515L1 23L6.80708 21.4857C8.40758 22.3501 10.2079 22.8093 12.0413 22.8121H12.0468C18.083 22.8121 22.9972 17.9207 23 11.9074C23 8.99608 21.8633 6.25617 19.7962 4.19733" fill="#4B4B4B"/>
</svg>
