<svg width="24" height="24" viewBox="0 0 24 24" fill="none" xmlns="http://www.w3.org/2000/svg">
<path d="M21.9608 5.93575C21.2234 6.25991 20.4359 6.48073 19.6068 6.58156C20.4517 6.07241 21.1017 5.26995 21.4092 4.31249C20.6167 4.77497 19.7384 5.11162 18.8035 5.29911C18.0568 4.49998 16.9927 4 15.8111 4C13.547 4 11.7113 5.83576 11.7113 8.09733C11.7113 8.42232 11.7488 8.7348 11.8171 9.03396C8.4089 8.87313 5.38819 7.23653 3.36661 4.76247C3.01079 5.36411 2.81163 6.06325 2.81163 6.82488C2.81163 8.24982 3.5366 9.50227 4.63489 10.2381C3.96242 10.2164 3.32994 10.0314 2.7783 9.72476V9.77559C2.7783 11.763 4.18908 13.4204 6.0665 13.7979C5.72235 13.8904 5.35903 13.9404 4.98654 13.9404C4.72489 13.9404 4.47406 13.9154 4.22324 13.8688C4.74905 15.4962 6.26066 16.6828 8.05975 16.7161C6.65981 17.8153 4.88571 18.4702 2.97496 18.4702C2.64997 18.4702 2.32582 18.4511 2 18.4144C3.82409 19.576 5.97317 20.2552 8.29724 20.2552C15.8419 20.2552 19.9626 14.0088 19.9626 8.60064C19.9626 8.42648 19.9626 8.25066 19.9501 8.07566C20.7509 7.50152 21.45 6.77572 22 5.95242L21.9608 5.93575Z" fill="currentColor"/>
</svg>
