<svg width="24" height="24" viewBox="0 0 24 24" fill="none" xmlns="http://www.w3.org/2000/svg">
<path d="M3.83294 4H8.32289L9.7701 7.61803L7.44522 9.16795C7.16702 9.35342 6.99992 9.66565 6.99992 10C7.00246 10.0936 6.99992 10.001 6.99992 10.001L6.99992 10.002L6.99993 10.0043L6.99996 10.0093L7.00011 10.0217C7.00025 10.0309 7.00051 10.0421 7.00093 10.0552C7.00177 10.0814 7.0033 10.1153 7.00604 10.1564C7.01152 10.2385 7.02183 10.3494 7.04122 10.4852C7.07998 10.7565 7.1552 11.1281 7.30124 11.5662C7.59447 12.4459 8.17065 13.5849 9.29281 14.7071C10.415 15.8293 11.554 16.4054 12.4337 16.6987C12.8718 16.8447 13.2435 16.9199 13.5147 16.9587C13.6505 16.9781 13.7615 16.9884 13.8436 16.9939C13.8846 16.9966 13.9185 16.9981 13.9447 16.999C13.9578 16.9994 13.969 16.9997 13.9782 16.9998L13.9906 17L13.9956 17L13.9979 17L13.9989 17C13.9989 17 14.1106 16.9939 13.9999 17C14.3787 17 14.725 16.786 14.8943 16.4472L15.564 15.1078L19.9999 15.8471V20.167C17.8888 20.4723 12.1873 20.7732 7.70703 16.2929C3.22673 11.8126 3.52764 6.1111 3.83294 4ZM9.07357 10.4861L10.8795 9.28213C11.6664 8.75751 11.9783 7.75338 11.6271 6.87525L10.1798 3.25722C9.87611 2.4979 9.1407 2 8.32289 2H3.7807C2.87219 2 2.01701 2.63116 1.86786 3.6169C1.52855 5.8595 1.06671 12.481 6.29281 17.7071C11.5189 22.9332 18.1404 22.4714 20.383 22.1321C21.3688 21.9829 21.9999 21.1277 21.9999 20.2192V15.8471C21.9999 14.8694 21.2931 14.0351 20.3287 13.8743L15.8928 13.135C15.0268 12.9907 14.1678 13.4281 13.7752 14.2134L13.4287 14.9064C13.3198 14.8796 13.1982 14.8453 13.0661 14.8013C12.4459 14.5946 11.5849 14.1707 10.707 13.2929C9.82919 12.4151 9.40537 11.5541 9.1986 10.9338C9.14273 10.7662 9.10251 10.6154 9.07357 10.4861Z" fill="#4B4B4B"/>
</svg>
