<svg width="24" height="24" viewBox="0 0 24 24" fill="none" xmlns="http://www.w3.org/2000/svg">
<path fill-rule="evenodd" clip-rule="evenodd" d="M4.05523 11.555C6.04483 11.7637 7.86072 12.5557 9.32873 13.7571L10.5858 12.5L5.68014 7.59436C4.8092 8.71476 4.22964 10.0729 4.05523 11.555ZM7.09436 6.18014L12 11.0858L13.2571 9.82873C12.0557 8.36072 11.2637 6.54483 11.055 4.55523C9.5729 4.72964 8.21476 5.3092 7.09436 6.18014ZM13.0711 4.57108C13.2628 6.00413 13.834 7.31709 14.6801 8.40564L16.9056 6.18014C15.8171 5.33396 14.5041 4.76283 13.0711 4.57108ZM18.3199 7.59436L16.0944 9.81986C17.1829 10.666 18.4959 11.2372 19.9289 11.4289C19.7372 9.99587 19.166 8.68291 18.3199 7.59436ZM19.9448 13.445C17.9552 13.2363 16.1393 12.4443 14.6713 11.2429L13.4142 12.5L18.3199 17.4056C19.1908 16.2852 19.7704 14.9271 19.9448 13.445ZM16.9056 18.8199L12 13.9142L10.7429 15.1713C11.9443 16.6393 12.7363 18.4552 12.945 20.4448C14.4271 20.2704 15.7852 19.6908 16.9056 18.8199ZM10.9289 20.4289C10.7372 18.9959 10.166 17.6829 9.31986 16.5944L7.09436 18.8199C8.18291 19.666 9.49587 20.2372 10.9289 20.4289ZM5.68014 17.4056L7.90564 15.1801C6.81709 14.334 5.50413 13.7628 4.07108 13.5711C4.26283 15.0041 4.83396 16.3171 5.68014 17.4056ZM2 12.5C2 6.97715 6.47715 2.5 12 2.5C17.5228 2.5 22 6.97715 22 12.5C22 18.0228 17.5228 22.5 12 22.5C6.47715 22.5 2 18.0228 2 12.5Z" fill="currentColor"/>
</svg>
