<?xml version="1.0" encoding="UTF-8" standalone="no"?>
<svg
   width="24"
   height="24"
   viewBox="0 0 24 24"
   fill="currentColor"
   version="1.1"
   xmlns="http://www.w3.org/2000/svg"
   xmlns:svg="http://www.w3.org/2000/svg">
  <g>
    <path d="M 10,2.25 C 9.5361529,2.25 9.089696,2.433759 8.7617188,2.7617188 8.433759,3.089696 8.25,3.5361529 8.25,4 v 4.46875 a 0.750075,0.750075 0 0 0 -0.78125,0 l -5,5 A 0.750075,0.750075 0 0 0 2.25,14 v 7 A 0.750075,0.750075 0 0 0 3,21.75 h 5 5 8 A 0.750075,0.750075 0 0 0 21.75,21 V 4 C 21.75,3.5360775 21.566146,3.0896536 21.238281,2.7617188 20.910261,2.4336457 20.463842,2.25 20,2.25 Z m 0,1.5 h 10 c 0.06656,0 0.128802,0.025279 0.175781,0.072266 C 20.222916,3.8694103 20.25,3.933483 20.25,4 v 16.25 h -6.5 V 14 A 0.750075,0.750075 0 0 0 13.53125,13.46875 L 9.75,9.6875 V 4 c 0,-0.066592 0.025166,-0.130632 0.072266,-0.1777344 C 9.869368,3.7751658 9.9334076,3.75 10,3.75 Z M 8,10.0625 8.46875,10.53125 12.25,14.310547 V 20.25 H 8.75 V 17 A 0.75,0.75 0 0 0 8,16.25 0.75,0.75 0 0 0 7.25,17 v 3.25 h -3.5 v -5.939453 z" />
    <path d="M 13,6.25 A 0.75,0.75 0 0 0 12.25,7 v 0.00977 a 0.75,0.75 0 0 0 0.75,0.75 0.75,0.75 0 0 0 0.75,-0.75 V 7 A 0.75,0.75 0 0 0 13,6.25 Z" />
    <path d="M 17,6.25 A 0.75,0.75 0 0 0 16.25,7 v 0.00977 a 0.75,0.75 0 0 0 0.75,0.75 0.75,0.75 0 0 0 0.75,-0.75 V 7 A 0.75,0.75 0 0 0 17,6.25 Z" />
    <path d="M 17,10.25 A 0.75,0.75 0 0 0 16.25,11 v 0.0098 a 0.75,0.75 0 0 0 0.75,0.75 0.75,0.75 0 0 0 0.75,-0.75 V 11 A 0.75,0.75 0 0 0 17,10.25 Z" />
    <path d="M 17,14.25 A 0.75,0.75 0 0 0 16.25,15 v 0.0098 a 0.75,0.75 0 0 0 0.75,0.75 0.75,0.75 0 0 0 0.75,-0.75 V 15 A 0.75,0.75 0 0 0 17,14.25 Z" />
  </g>
</svg>
