<svg width="24" height="24" viewBox="0 0 24 24" fill="none" xmlns="http://www.w3.org/2000/svg">
<path fill-rule="evenodd" clip-rule="evenodd" d="M4.07152 6.12861C4.22339 5.74895 4.5911 5.5 5 5.5H14C14.3038 5.5 14.5911 5.63809 14.7809 5.8753L18.4806 10.5H19C20.6569 10.5 22 11.8431 22 13.5V17.5C22 18.0523 21.5523 18.5 21 18.5H19.8293C19.4175 19.6652 18.3062 20.5 17 20.5C15.6938 20.5 14.5825 19.6652 14.1707 18.5H9.82929C9.41746 19.6652 8.30622 20.5 7 20.5C5.69378 20.5 4.58254 19.6652 4.17071 18.5H3C2.44772 18.5 2 18.0523 2 17.5V11.5C2 11.3728 2.02428 11.2467 2.07152 11.1286L4.07152 6.12861ZM4.17071 16.5C4.58254 15.3348 5.69378 14.5 7 14.5C8.30622 14.5 9.41746 15.3348 9.82929 16.5H14.1707C14.5825 15.3348 15.6938 14.5 17 14.5C18.3062 14.5 19.4175 15.3348 19.8293 16.5H20V13.5C20 12.9477 19.5523 12.5 19 12.5H4V16.5H4.17071ZM4.47703 10.5H11V7.5H5.67703L4.47703 10.5ZM13 7.5V10.5H15.9194L13.5194 7.5H13ZM7 16.5C6.44772 16.5 6 16.9477 6 17.5C6 18.0523 6.44772 18.5 7 18.5C7.55228 18.5 8 18.0523 8 17.5C8 16.9477 7.55228 16.5 7 16.5ZM17 16.5C16.4477 16.5 16 16.9477 16 17.5C16 18.0523 16.4477 18.5 17 18.5C17.5523 18.5 18 18.0523 18 17.5C18 16.9477 17.5523 16.5 17 16.5Z" fill="currentColor"/>
</svg>
