<?xml version="1.0" encoding="UTF-8" standalone="no"?>
<svg
   width="20"
   height="20"
   viewBox="0 0 20 20"
   fill="currentColor"
   version="1.1"
   xmlns="http://www.w3.org/2000/svg"
   xmlns:svg="http://www.w3.org/2000/svg">
  <g>
    <path d="M 10,1.75 C 8.91661,1.75 7.8446841,1.9643098 6.84375,2.3789063 5.8428228,2.7935044 4.9320903,3.3999409 4.1660156,4.1660156 3.3999409,4.9320903 2.7935044,5.8428228 2.3789063,6.84375 1.9643098,7.8446841 1.75,8.91661 1.75,10 c 0,1.083381 0.2143003,2.155348 0.6289063,3.15625 0.4145975,1.000992 1.021018,1.911687 1.7871093,2.677734 0.766056,0.766012 1.6767806,1.372512 2.6777344,1.78711 C 7.8446762,18.035676 8.9166049,18.25 10,18.25 c 1.083386,0 2.155356,-0.214315 3.15625,-0.628906 1.001018,-0.414598 1.911706,-1.021081 2.677734,-1.78711 0.766029,-0.766028 1.372512,-1.676716 1.78711,-2.677734 C 18.035685,12.155356 18.25,11.083386 18.25,10 18.25,8.9166049 18.035676,7.8446762 17.621094,6.84375 17.206496,5.8427962 16.599996,4.9320716 15.833984,4.1660156 15.067937,3.3999243 14.157242,2.7935038 13.15625,2.3789063 12.155348,1.9643003 11.083381,1.75 10,1.75 Z m 0,1.5 c 0.886417,0 1.765088,0.1744586 2.583984,0.5136719 0.819007,0.3392216 1.562702,0.8361033 2.189454,1.4628906 0.626786,0.6268227 1.123689,1.3705288 1.46289,2.1894531 C 16.575545,8.2349876 16.75,9.113577 16.75,10 c 0,0.886412 -0.174464,1.76508 -0.513672,2.583984 -0.339201,0.81898 -0.83612,1.562683 -1.46289,2.189454 -0.626771,0.62677 -1.370474,1.123689 -2.189454,1.46289 C 11.76508,16.575536 10.886412,16.75 10,16.75 9.113577,16.75 8.2349876,16.575545 7.4160156,16.236328 6.5970913,15.897127 5.8533852,15.400224 5.2265625,14.773438 4.5997752,14.146686 4.1028935,13.402991 3.7636719,12.583984 3.4244586,11.765088 3.25,10.886417 3.25,10 3.25,9.113572 3.4244491,8.2349797 3.7636719,7.4160156 4.102893,6.5970646 4.5997586,5.8533664 5.2265625,5.2265625 5.8533664,4.5997586 6.5970646,4.102893 7.4160156,3.7636719 8.2349797,3.4244491 9.113572,3.25 10,3.25 Z" />
    <path d="m 10.001953,5.0839844 c -2.3482223,0 -4.0839843,2.2910291 -4.0839843,4.9160156 0,2.625029 1.7357729,4.916016 4.0839843,4.916016 0.956666,0 1.836019,-0.400908 2.511719,-1.035157 a 0.75,0.75 0 0 0 0.03516,-1.060546 0.75,0.75 0 0 0 -1.060547,-0.0332 c -0.439299,0.412351 -0.942995,0.628907 -1.486328,0.628907 -1.3351047,0 -2.5839843,-1.43929 -2.5839843,-3.416016 0,-1.9766689 1.2488905,-3.4160156 2.5839843,-3.4160156 0.544353,0 1.047034,0.2165288 1.486328,0.6289062 a 0.75,0.75 0 0 0 1.060547,-0.033203 0.75,0.75 0 0 0 -0.0332,-1.0605469 C 11.839921,5.4848391 10.959199,5.0839844 10.001953,5.0839844 Z" />
    <path d="m 5.8320312,8 a 0.75,0.75 0 0 0 -0.75,0.75 0.75,0.75 0 0 0 0.75,0.75 h 3.3339844 a 0.75,0.75 0 0 0 0.75,-0.75 0.75,0.75 0 0 0 -0.75,-0.75 z" />
    <path d="m 5.8320312,10.5 a 0.75,0.75 0 0 0 -0.75,0.75 0.75,0.75 0 0 0 0.75,0.75 h 3.3339844 a 0.75,0.75 0 0 0 0.75,-0.75 0.75,0.75 0 0 0 -0.75,-0.75 z" />
  </g>
</svg>
