<svg width="16" height="20" viewBox="0 0 16 20" fill="none" xmlns="http://www.w3.org/2000/svg">
<path fill-rule="evenodd" clip-rule="evenodd" d="M3 2C2.44772 2 2 2.44772 2 3V17C2 17.5523 2.44772 18 3 18H13C13.5523 18 14 17.5523 14 17V7H11C9.89543 7 9 6.10457 9 5V2H3ZM11 3.41421L12.5858 5H11V3.41421ZM0 3C0 1.34315 1.34315 0 3 0H10C10.2652 0 10.5196 0.105357 10.7071 0.292893L15.7071 5.29289C15.8946 5.48043 16 5.73478 16 6V17C16 18.6569 14.6569 20 13 20H3C1.34315 20 0 18.6569 0 17V3ZM4 7C4 6.44772 4.44772 6 5 6H6C6.55228 6 7 6.44772 7 7C7 7.55228 6.55228 8 6 8H5C4.44772 8 4 7.55228 4 7ZM4 11C4 10.4477 4.44772 10 5 10H11C11.5523 10 12 10.4477 12 11C12 11.5523 11.5523 12 11 12H5C4.44772 12 4 11.5523 4 11ZM4 15C4 14.4477 4.44772 14 5 14H11C11.5523 14 12 14.4477 12 15C12 15.5523 11.5523 16 11 16H5C4.44772 16 4 15.5523 4 15Z" fill="currentColor" />
</svg>
