<?xml version="1.0" encoding="UTF-8" standalone="no"?>
<svg
   width="20"
   height="20"
   viewBox="0 0 20 20"
   fill="currentColor"
   version="1.1"
   xmlns="http://www.w3.org/2000/svg"
   xmlns:svg="http://www.w3.org/2000/svg">
  <g>
    <path d="m 4.1660156,2.5839844 c -0.6406584,0 -1.2559808,0.2540276 -1.7089843,0.7070312 C 2.0040066,3.7440258 1.75,4.3593529 1.75,5 1.75,5.6406471 2.0040066,6.2559742 2.4570313,6.7089844 2.9100348,7.161988 3.5253572,7.4160156 4.1660156,7.4160156 H 15.833984 c 0.640697,0 1.25602,-0.2539794 1.708985,-0.7070312 C 17.996034,6.2559771 18.25,5.6406584 18.25,5 18.25,4.3593416 17.996034,3.7440229 17.542969,3.2910156 17.090004,2.8379638 16.474681,2.5839844 15.833984,2.5839844 Z m 0,1.5 H 15.833984 c 0.243503,0 0.47445,0.09551 0.646485,0.2675781 a 0.750075,0.750075 0 0 0 0.002,0 C 16.654556,4.5236746 16.75,4.7565993 16.75,5 c 0,0.2434007 -0.09544,0.4763254 -0.267578,0.6484375 a 0.750075,0.750075 0 0 0 -0.002,0 C 16.308434,5.8205051 16.077487,5.9160156 15.833984,5.9160156 H 4.1660156 c -0.2434007,0 -0.4763217,-0.095462 -0.6484375,-0.2675781 C 3.3454634,5.4763283 3.25,5.243412 3.25,5 3.25,4.756588 3.3454634,4.5236717 3.5175781,4.3515625 3.6896939,4.1794467 3.9226149,4.0839844 4.1660156,4.0839844 Z" />
    <path d="m 4.1679687,5.9160156 a 0.75,0.75 0 0 0 -0.7499999,0.75 V 15 c 0,0.640631 0.2540729,1.255968 0.7070312,1.708984 0.4530695,0.453128 1.0684391,0.707032 1.7089844,0.707032 h 8.3339846 c 0.640529,0 1.255913,-0.253961 1.708984,-0.707032 C 16.329813,16.255979 16.583984,15.640642 16.583984,15 V 6.6660156 a 0.75,0.75 0 0 0 -0.75,-0.75 0.75,0.75 0 0 0 -0.75,0.75 V 15 c 0,0.243357 -0.09544,0.476243 -0.267578,0.648438 -0.172128,0.172128 -0.404967,0.267578 -0.648437,0.267578 H 5.8339844 c -0.2435138,0 -0.4763877,-0.09551 -0.6484375,-0.267578 C 5.0133858,15.476254 4.9179687,15.243369 4.9179687,15 V 6.6660156 a 0.75,0.75 0 0 0 -0.75,-0.75 z" />
    <path d="M 8.3320313,9.25 A 0.75,0.75 0 0 0 7.5820312,10 0.75,0.75 0 0 0 8.3320313,10.75 h 3.3339847 a 0.75,0.75 0 0 0 0.75,-0.75 0.75,0.75 0 0 0 -0.75,-0.75 z" />
  </g>
</svg>
