<?xml version="1.0" encoding="UTF-8" standalone="no"?>
<svg
   width="20"
   height="20"
   viewBox="0 0 20 20"
   fill="currentColor"
   version="1.1"
   xmlns="http://www.w3.org/2000/svg"
   xmlns:svg="http://www.w3.org/2000/svg">
  <g>
    <path d="m 9.46875,1.96875 -7.5,7.5 A 0.750075,0.750075 0 0 0 2.5,10.75 h 0.9160156 v 5.083984 c 0,0.640686 0.255927,1.256014 0.7089844,1.708985 C 4.578013,17.99604 5.1933315,18.25 5.8339844,18.25 h 4.9999996 a 0.75,0.75 0 0 0 0.75,-0.75 0.75,0.75 0 0 0 -0.75,-0.75 H 5.8339844 c -0.2433862,0 -0.4763311,-0.09545 -0.6484375,-0.267578 a 0.750075,0.750075 0 0 0 0,-0.002 C 5.0134849,16.30844 4.9160156,16.077498 4.9160156,15.833984 V 10 A 0.750075,0.750075 0 0 0 4.2382812,9.3242188 L 10,3.5625 15.302734,8.8632813 a 0.75,0.75 0 0 0 1.060547,0 0.75,0.75 0 0 0 0,-1.0605469 L 10.53125,1.96875 a 0.750075,0.750075 0 0 0 -1.0625,0 z" />
    <path d="m 9.1660156,10.083984 c -0.6405453,0 -1.2559205,0.25391 -1.7089844,0.707032 C 7.0040786,11.244026 6.75,11.859358 6.75,12.5 v 5 A 0.75,0.75 0 0 0 7.5,18.25 0.75,0.75 0 0 0 8.25,17.5 v -5 c 0,-0.243357 0.095411,-0.476249 0.2675781,-0.648437 0.1720555,-0.172078 0.4049237,-0.267579 0.6484375,-0.267579 h 1.6679684 c 0.180485,0 0.341973,0.04948 0.482422,0.136719 a 0.75,0.75 0 0 0 1.033203,-0.242187 0.75,0.75 0 0 0 -0.242187,-1.033203 c -0.369551,-0.229557 -0.808923,-0.361329 -1.273438,-0.361329 z" />
    <path d="m 15.417969,11.75 c -0.530182,0 -1.039237,0.211112 -1.414063,0.585938 -0.374901,0.3749 -0.585937,0.88392 -0.585937,1.414062 0,0.530142 0.211036,1.039162 0.585937,1.414063 0.374826,0.374825 0.883881,0.585937 1.414063,0.585937 h 0.833984 c 0.132857,0 0.259617,0.05259 0.353516,0.146484 0.0939,0.0939 0.146484,0.220659 0.146484,0.353516 0,0.132857 -0.05259,0.259617 -0.146484,0.353516 C 16.51157,16.697414 16.38481,16.75 16.251953,16.75 h -2.083984 a 0.75,0.75 0 0 0 -0.75,0.75 0.75,0.75 0 0 0 0.75,0.75 h 2.083984 c 0.530142,0 1.039162,-0.211037 1.414063,-0.585938 0.374901,-0.3749 0.585937,-0.88392 0.585937,-1.414062 0,-0.530142 -0.211036,-1.039162 -0.585937,-1.414062 C 17.291115,14.461037 16.782095,14.25 16.251953,14.25 h -0.833984 c -0.133017,0 -0.259542,-0.05251 -0.353516,-0.146484 -0.0939,-0.0939 -0.146484,-0.220659 -0.146484,-0.353516 0,-0.132857 0.05259,-0.259617 0.146484,-0.353516 C 15.158427,13.30251 15.284952,13.25 15.417969,13.25 h 2.083984 a 0.75,0.75 0 0 0 0.75,-0.75 0.75,0.75 0 0 0 -0.75,-0.75 z" />
    <path d="m 15.832031,10.916016 a 0.75,0.75 0 0 0 -0.75,0.75 V 12.5 a 0.75,0.75 0 0 0 0.75,0.75 0.75,0.75 0 0 0 0.75,-0.75 v -0.833984 a 0.75,0.75 0 0 0 -0.75,-0.75 z m 0,5.833984 a 0.75,0.75 0 0 0 -0.75,0.75 v 0.833984 a 0.75,0.75 0 0 0 0.75,0.75 0.75,0.75 0 0 0 0.75,-0.75 V 17.5 a 0.75,0.75 0 0 0 -0.75,-0.75 z" />
  </g>
</svg>
