<?xml version="1.0" encoding="UTF-8" standalone="no"?>
<svg
   width="20"
   height="20"
   viewBox="0 0 20 20"
   fill="currentColor"
   version="1.1"
   xmlns="http://www.w3.org/2000/svg"
   xmlns:svg="http://www.w3.org/2000/svg">
   <path d="M7.23583 2.54276C7.40688 2.48575 7.59182 2.48575 7.76287 2.54276L12.4993 4.12159L16.139 2.90838C17.2182 2.54864 18.3327 3.35193 18.3327 4.48952V14.3994C18.3327 15.1168 17.8736 15.7537 17.1931 15.9805L12.7629 17.4572C12.5918 17.5143 12.4069 17.5143 12.2358 17.4572L7.49935 15.8784L3.85973 17.0916C2.78051 17.4514 1.66602 16.6481 1.66602 15.5105V5.60063C1.66602 4.88325 2.12507 4.24635 2.80564 4.01949L7.23583 2.54276ZM8.33268 14.3994L11.666 15.5105V5.60063L8.33268 4.48952V14.3994ZM6.66602 4.48952L3.33268 5.60063V15.5105L6.66602 14.3994V4.48952ZM13.3327 5.60063V15.5105L16.666 14.3994V4.48952L13.3327 5.60063Z"/>
</svg>
