<svg width="24" height="24" viewBox="0 0 24 24" fill="none" xmlns="http://www.w3.org/2000/svg">
<path d="M8.16111 13.6662H10.3278V14.7774H7.77222C7.74445 14.9551 7.72778 15.144 7.72778 15.3329C7.72778 15.5218 7.74445 15.7107 7.77222 15.8885H10.3278V16.9997H8.16111C8.54445 17.672 9.15 18.1109 9.83889 18.1109C10.2778 18.1109 10.7 17.9331 11.0611 17.5942L11.4667 17.2164L12.2278 18.0275L11.8222 18.4053C11.2556 18.9387 10.5667 19.2221 9.84445 19.2221C8.56111 19.2221 7.45556 18.3109 6.93889 16.9997H5.88889V15.8885H6.65556C6.63333 15.7052 6.61667 15.5218 6.61667 15.3329C6.61667 15.144 6.63333 14.9607 6.65556 14.7774H5.88889V13.6662H6.93889C7.45556 12.355 8.56667 11.4438 9.84445 11.4438C10.5722 11.4438 11.2556 11.7272 11.8278 12.2605L12.2333 12.6383L11.4722 13.4495L11.0667 13.0717C10.7056 12.7328 10.2833 12.555 9.84445 12.555C9.15556 12.555 8.55 12.9939 8.16667 13.6662H8.16111ZM21.9944 13.1106V17.5608C21.9944 18.172 21.5 18.6665 20.8889 18.672H20.3278V19.7832C20.3278 21.0111 19.3333 22 18.1111 22H3.11111C2.81643 22 2.53381 21.8829 2.32544 21.6745C2.11706 21.4662 2 21.1835 2 20.8888V9.7715C2 9.4768 2.11706 9.19417 2.32544 8.98578C2.53381 8.7774 2.81643 8.66033 3.11111 8.66033H9.69445C9.20239 8.64806 8.71915 8.52701 8.27942 8.30585C7.83968 8.0847 7.45436 7.76893 7.15111 7.38121C6.84785 6.99349 6.63419 6.54344 6.52546 6.06336C6.41673 5.58329 6.41562 5.08509 6.52222 4.60453C6.78889 3.35446 7.8 2.34329 9.05 2.07661C11.2056 1.62103 13.1111 3.26001 13.1111 5.33235C14.9444 5.33235 16.4389 6.82133 16.4444 8.65477H18.1111C19.3389 8.65477 20.3333 9.64927 20.3333 10.8771V11.9994H20.8889C21.1836 11.9994 21.4662 12.1165 21.6746 12.3249C21.8829 12.5333 22 12.8159 22 13.1106H21.9944ZM11.4389 8.66033H14.7722C14.7722 7.74361 14.0222 7.00467 13.1056 7.00467C12.1889 7.00467 11.4444 7.74916 11.4389 8.66033ZM9.77778 6.99912C10.7 6.99912 11.4444 6.25463 11.4444 5.33235C11.4444 4.41008 10.7 3.66559 9.77778 3.66559C8.85556 3.66559 8.11111 4.41008 8.11111 5.33235C8.11111 6.25463 8.85556 6.99912 9.77778 6.99912ZM18.6611 18.672H15.9222C15 18.672 14.2556 17.9275 14.2556 17.0053V13.6662C14.2556 12.7439 15 11.9994 15.9222 11.9994H18.6611V10.8827C18.6611 10.5771 18.4111 10.3271 18.1056 10.3271H3.66111V20.3332H18.1111C18.4167 20.3332 18.6611 20.0888 18.6611 19.7832V18.672ZM20.3278 13.6662H15.8722V17.0053H20.3278V13.6662ZM17.55 16.1663C18.0111 16.1663 18.3833 15.7941 18.3833 15.3329C18.3833 14.8718 18.0111 14.4996 17.55 14.4996C17.0889 14.4996 16.7167 14.8718 16.7167 15.3329C16.7167 15.7941 17.0889 16.1663 17.55 16.1663Z" fill="currentColor"/>
</svg>
