<svg width="24" height="24" viewBox="0 0 24 24" fill="none" xmlns="http://www.w3.org/2000/svg">
<path fill-rule="evenodd" clip-rule="evenodd" d="M11.7333 16.2857C14.1633 16.2857 16.1332 14.3669 16.1332 12C16.1332 9.63307 14.1633 7.71429 11.7333 7.71429C9.30329 7.71429 7.33336 9.63307 7.33336 12C7.33336 14.3669 9.30329 16.2857 11.7333 16.2857ZM11.7333 18.1905C15.2433 18.1905 18.0888 15.4189 18.0888 12C18.0888 8.58109 15.2433 5.80952 11.7333 5.80952C8.22328 5.80952 5.37783 8.58109 5.37783 12C5.37783 15.4189 8.22328 18.1905 11.7333 18.1905Z" fill="#4B4B4B"/>
<path fill-rule="evenodd" clip-rule="evenodd" d="M12.2222 2C12.7622 2 13.2 2.4264 13.2 2.95238V5.80952C13.2 6.33551 12.7622 6.7619 12.2222 6.7619C11.6822 6.7619 11.2444 6.33551 11.2444 5.80952V2.95238C11.2444 2.4264 11.6822 2 12.2222 2Z" fill="#4B4B4B"/>
<path fill-rule="evenodd" clip-rule="evenodd" d="M9.28889 2.95238C9.28889 2.4264 9.72665 2 10.2667 2H14.1777C14.7177 2 15.1555 2.4264 15.1555 2.95238C15.1555 3.47837 14.7177 3.90476 14.1777 3.90476H10.2667C9.72665 3.90476 9.28889 3.47837 9.28889 2.95238Z" fill="#4B4B4B"/>
<path fill-rule="evenodd" clip-rule="evenodd" d="M12.2222 22C11.6822 22 11.2444 21.5736 11.2444 21.0476V18.1905C11.2444 17.6645 11.6822 17.2381 12.2222 17.2381C12.7622 17.2381 13.2 17.6645 13.2 18.1905V21.0476C13.2 21.5736 12.7622 22 12.2222 22Z" fill="#4B4B4B"/>
<path fill-rule="evenodd" clip-rule="evenodd" d="M15.1555 21.0476C15.1555 21.5736 14.7177 22 14.1777 22H10.2667C9.72665 22 9.28889 21.5736 9.28889 21.0476C9.28889 20.5216 9.72665 20.0952 10.2667 20.0952H14.1777C14.7177 20.0952 15.1555 20.5216 15.1555 21.0476Z" fill="#4B4B4B"/>
<path fill-rule="evenodd" clip-rule="evenodd" d="M20.8911 7.4591C21.1611 7.91461 21.0008 8.49708 20.5332 8.76007L17.9929 10.1886C17.5252 10.4516 16.9272 10.2956 16.6572 9.84005C16.3872 9.38453 16.5475 8.80206 17.0151 8.53907L19.5554 7.1105C20.0231 6.84751 20.6211 7.00358 20.8911 7.4591Z" fill="#4B4B4B"/>
<path fill-rule="evenodd" clip-rule="evenodd" d="M18.5777 5.46093C19.0453 5.19794 19.6433 5.35401 19.9133 5.80952L21.8688 9.10867C22.1388 9.56419 21.9786 10.1467 21.511 10.4096C21.0433 10.6726 20.4453 10.5166 20.1753 10.061L18.2198 6.7619C17.9498 6.30639 18.11 5.72392 18.5777 5.46093Z" fill="#4B4B4B"/>
<path fill-rule="evenodd" clip-rule="evenodd" d="M3.10892 17.4591C2.83892 17.0036 2.99915 16.4211 3.46681 16.1581L6.00712 14.7295C6.47478 14.4666 7.07277 14.6226 7.34277 15.0781C7.61277 15.5337 7.45254 16.1161 6.98488 16.3791L4.44457 17.8077C3.97692 18.0707 3.37893 17.9146 3.10892 17.4591Z" fill="#4B4B4B"/>
<path fill-rule="evenodd" clip-rule="evenodd" d="M5.42234 19.4573C4.95468 19.7203 4.35669 19.5642 4.08669 19.1087L2.13116 15.8095C1.86116 15.354 2.02139 14.7715 2.48905 14.5085C2.9567 14.2456 3.5547 14.4016 3.8247 14.8571L5.78023 18.1563C6.05023 18.6118 5.89 19.1943 5.42234 19.4573Z" fill="#4B4B4B"/>
<path fill-rule="evenodd" clip-rule="evenodd" d="M20.8911 17.4591C20.6211 17.9146 20.0231 18.0707 19.5554 17.8077L17.0151 16.3791C16.5475 16.1161 16.3872 15.5337 16.6572 15.0781C16.9272 14.6226 17.5252 14.4666 17.9929 14.7295L20.5332 16.1581C21.0008 16.4211 21.1611 17.0036 20.8911 17.4591Z" fill="#4B4B4B"/>
<path fill-rule="evenodd" clip-rule="evenodd" d="M21.511 14.5085C21.9786 14.7715 22.1388 15.354 21.8688 15.8095L19.9133 19.1087C19.6433 19.5642 19.0453 19.7203 18.5777 19.4573C18.11 19.1943 17.9498 18.6118 18.2198 18.1563L20.1753 14.8571C20.4453 14.4016 21.0433 14.2456 21.511 14.5085Z" fill="#4B4B4B"/>
<path fill-rule="evenodd" clip-rule="evenodd" d="M3.10892 7.4591C3.37893 7.00358 3.97692 6.84751 4.44458 7.1105L6.98488 8.53907C7.45254 8.80206 7.61277 9.38453 7.34277 9.84005C7.07277 10.2956 6.47478 10.4516 6.00712 10.1886L3.46681 8.76007C2.99915 8.49708 2.83892 7.91461 3.10892 7.4591Z" fill="#4B4B4B"/>
<path fill-rule="evenodd" clip-rule="evenodd" d="M2.48905 10.4096C2.02139 10.1467 1.86116 9.56419 2.13116 9.10867L4.08669 5.80952C4.35669 5.35401 4.95468 5.19793 5.42234 5.46093C5.89 5.72392 6.05023 6.30639 5.78023 6.7619L3.8247 10.061C3.5547 10.5166 2.9567 10.6726 2.48905 10.4096Z" fill="#4B4B4B"/>
</svg>
