<svg width="24" height="24" viewBox="0 0 24 24" xmlns="http://www.w3.org/2000/svg">
<path d="M10.5 7L12 9L17.5 2.5" stroke="#248641" stroke-width="2" stroke-linecap="round" stroke-linejoin="round" fill="none"/>
<path d="M17 8C17 10.7614 14.7614 13 12 13C9.23858 13 7 10.7614 7 8C7 5.23858 9.23858 3 12 3" stroke="currentColor" stroke-width="2" stroke-linecap="round" stroke-linejoin="round" fill="none"/>
<path d="M8 18C6.34315 18 5 19.3431 5 21C5 21.5523 4.55228 22 4 22C3.44772 22 3 21.5523 3 21C3 18.2386 5.23858 16 8 16H16C18.7614 16 21 18.2386 21 21C21 21.5523 20.5523 22 20 22C19.4477 22 19 21.5523 19 21C19 19.3431 17.6569 18 16 18H8Z" fill="currentColor"/>
</svg>
