<svg width="24" height="24" viewBox="0 0 24 24" fill="none" xmlns="http://www.w3.org/2000/svg">
<path d="M2.5 17.5V6.5C2.5 5.70435 2.8163 4.94152 3.37891 4.37891C3.94152 3.8163 4.70435 3.5 5.5 3.5H9.5C9.76522 3.5 10.0195 3.60543 10.207 3.79297L12.9141 6.5H19.5C20.2957 6.5 21.0585 6.8163 21.6211 7.37891C22.1837 7.94151 22.5 8.70435 22.5 9.5V17.5C22.5 18.2957 22.1837 19.0585 21.6211 19.6211C21.0585 20.1837 20.2957 20.5 19.5 20.5H5.5C4.70435 20.5 3.94151 20.1837 3.37891 19.6211C2.8163 19.0585 2.5 18.2956 2.5 17.5ZM4.5 17.5C4.5 17.7652 4.60543 18.0195 4.79297 18.207C4.98051 18.3946 5.23478 18.5 5.5 18.5H19.5C19.7652 18.5 20.0195 18.3946 20.207 18.207C20.3946 18.0195 20.5 17.7652 20.5 17.5V9.5C20.5 9.23478 20.3946 8.98051 20.207 8.79297C20.0195 8.60543 19.7652 8.5 19.5 8.5H12.5C12.2348 8.5 11.9805 8.39457 11.793 8.20703L9.08594 5.5H5.5C5.23478 5.5 4.9805 5.60543 4.79297 5.79297C4.60543 5.9805 4.5 6.23478 4.5 6.5V17.5Z" fill="currentColor"/>
</svg>
