<svg width="24" height="24" viewBox="0 0 24 24" fill="none" xmlns="http://www.w3.org/2000/svg">
<path fill-rule="evenodd" clip-rule="evenodd" d="M3 5C3 4.44772 3.44772 4 4 4H21C21.5523 4 22 4.44772 22 5C22 5.55228 21.5523 6 21 6H4C3.44772 6 3 5.55228 3 5Z" fill="currentColor"/>
<path fill-rule="evenodd" clip-rule="evenodd" d="M3 12C3 11.4477 3.44772 11 4 11H21C21.5523 11 22 11.4477 22 12C22 12.5523 21.5523 13 21 13H4C3.44772 13 3 12.5523 3 12Z" fill="currentColor"/>
<path fill-rule="evenodd" clip-rule="evenodd" d="M3 19C3 18.4477 3.44772 18 4 18H21C21.5523 18 22 18.4477 22 19C22 19.5523 21.5523 20 21 20H4C3.44772 20 3 19.5523 3 19Z" fill="currentColor"/>
</svg>
