<svg  width="20" height="21" viewBox="0 0 20 21" fill="none" xmlns="http://www.w3.org/2000/svg">
  <g clip-path="url(#clip0_35949_28812)">
    <path d="M8.57465 3.71672L1.51632 15.5C1.37079 15.7521 1.29379 16.0378 1.29298 16.3288C1.29216 16.6198 1.36756 16.906 1.51167 17.1588C1.65579 17.4116 1.86359 17.6223 2.11441 17.7699C2.36523 17.9175 2.65032 17.9969 2.94132 18H17.058C17.349 17.9969 17.6341 17.9175 17.8849 17.7699C18.1357 17.6223 18.3435 17.4116 18.4876 17.1588C18.6317 16.906 18.7071 16.6198 18.7063 16.3288C18.7055 16.0378 18.6285 15.7521 18.483 15.5L11.4247 3.71672C11.2761 3.4718 11.0669 3.26931 10.8173 3.12879C10.5677 2.98826 10.2861 2.91443 9.99965 2.91443C9.71321 2.91443 9.43159 2.98826 9.18199 3.12879C8.93238 3.26931 8.72321 3.4718 8.57465 3.71672Z" fill="#E15601" stroke="#E15601" stroke-width="2" stroke-linecap="round" stroke-linejoin="round"/>
    <path d="M10 14.6666H10.0083" stroke="white" stroke-width="2" stroke-linecap="round" stroke-linejoin="round"/>
    <path d="M10 8V11.3333" stroke="white" stroke-width="2" stroke-linecap="round" stroke-linejoin="round"/>
  </g>
  <defs>
    <clipPath id="clip0_35949_28812">
      <rect width="20" height="20" fill="white" transform="translate(0 0.5)"/>
    </clipPath>
  </defs>
</svg>
